<svg width="131" height="29" viewBox="0 0 131 29" fill="none" xmlns="http://www.w3.org/2000/svg">
<g clip-path="url(#clip0_584_1265)">
<rect x="4.5" y="3.32812" width="24" height="22" rx="4" fill="white"/>
<path d="M21.1617 12.4692C21.0454 12.5819 20.9733 12.6573 20.8959 12.7269C20.5123 13.0722 20.167 13.6102 19.7304 13.6994C19.3731 13.7724 18.9034 13.315 18.4886 13.0837C17.1422 12.3328 15.5735 12.7286 14.7523 14.0305C13.8584 15.4477 14.2463 17.3867 15.5599 18.3587C16.6067 19.1332 18.3695 18.8622 19.0599 18.0879C19.5511 17.5371 19.9465 17.5457 20.3996 18.065C20.6378 18.3379 20.9342 18.6062 21.2001 18.8554C21.8497 19.4642 21.8761 19.7987 21.2128 20.3731C19.2866 22.0412 17.0555 22.323 14.7249 21.5287C12.4476 20.7526 11.1948 19.0105 10.9031 16.6564C10.3789 12.4253 13.6365 9.12575 17.8835 9.54354C19.087 9.66192 20.1611 10.1671 21.1248 10.8914C21.8875 11.4646 21.893 11.7113 21.1617 12.4692Z" fill="#7D59FC" stroke="black" stroke-width="0.917159"/>
<rect x="4.71484" y="4.14844" width="22.993" height="2.54007" fill="#8FACF8"/>
<path d="M8.13672 1.53846C8.13672 0.727626 8.79403 0.0703125 9.60487 0.0703125V0.0703125C10.4157 0.0703125 11.073 0.727626 11.073 1.53846V2.7102H8.13672V1.53846Z" fill="#0F0808"/>
<path d="M21.3594 1.52284C21.3594 0.712001 22.0167 0.0546875 22.8275 0.0546875V0.0546875C23.6384 0.0546875 24.2957 0.712001 24.2957 1.52284V2.69457H21.3594V1.52284Z" fill="#0F0808"/>
<rect x="3.84755" y="3.28114" width="24.7275" height="22.3528" rx="3.95101" stroke="#0F0808" stroke-width="1.73459"/>
</g>
<path d="M43.1627 13.6671C42.1088 13.6671 41.2035 13.4564 40.4467 13.0348C39.6994 12.6037 39.1246 12.0002 38.7222 11.2242C38.3199 10.4386 38.1187 9.51413 38.1187 8.45072C38.1187 7.65557 38.2336 6.94184 38.4636 6.30955C38.6935 5.66768 39.024 5.12161 39.4551 4.67134C39.8862 4.21149 40.4131 3.86181 41.0359 3.62231C41.6681 3.37322 42.3771 3.24868 43.1627 3.24868C43.6896 3.24868 44.2069 3.31574 44.7146 3.44986C45.2224 3.58399 45.6679 3.77559 46.0511 4.02468C46.2523 4.14922 46.3864 4.3025 46.4535 4.48453C46.5205 4.65697 46.5349 4.82941 46.4966 5.00185C46.4582 5.16472 46.3768 5.30363 46.2523 5.41859C46.1373 5.53356 45.9888 5.60062 45.8068 5.61978C45.6343 5.62936 45.4427 5.56709 45.232 5.43296C44.935 5.24136 44.6141 5.10245 44.2692 5.01623C43.9243 4.93 43.5746 4.88689 43.2201 4.88689C42.5399 4.88689 41.9651 5.02581 41.4957 5.30363C41.0263 5.58146 40.6718 5.98382 40.4323 6.51074C40.1928 7.03765 40.073 7.68431 40.073 8.45072C40.073 9.20756 40.1928 9.85422 40.4323 10.3907C40.6718 10.9272 41.0263 11.3344 41.4957 11.6122C41.9651 11.89 42.5399 12.0289 43.2201 12.0289C43.5842 12.0289 43.9434 11.9858 44.2979 11.8996C44.6524 11.8038 44.9877 11.6601 45.3038 11.4685C45.5146 11.3439 45.7014 11.2913 45.8643 11.3104C46.0367 11.32 46.1804 11.3775 46.2954 11.4829C46.4103 11.5882 46.487 11.7224 46.5253 11.8852C46.5636 12.0385 46.554 12.2014 46.4966 12.3738C46.4391 12.5367 46.3241 12.6804 46.1517 12.8049C45.7685 13.0827 45.3086 13.2983 44.7721 13.4516C44.2452 13.5953 43.7087 13.6671 43.1627 13.6671ZM50.1051 13.6671C49.5973 13.6671 49.1423 13.5713 48.7399 13.3797C48.3471 13.1786 48.0358 12.9103 47.8058 12.575C47.5855 12.2397 47.4753 11.8613 47.4753 11.4397C47.4753 10.9224 47.6094 10.5153 47.8777 10.2183C48.1459 9.9117 48.5818 9.69136 49.1854 9.55724C49.7889 9.42311 50.5985 9.35605 51.614 9.35605H52.3325V10.3907H51.6283C51.0344 10.3907 50.5601 10.4195 50.2057 10.4769C49.8512 10.5344 49.5973 10.635 49.444 10.7787C49.3003 10.9128 49.2285 11.1044 49.2285 11.3535C49.2285 11.6697 49.3387 11.9283 49.559 12.1295C49.7794 12.3307 50.0859 12.4313 50.4787 12.4313C50.7949 12.4313 51.0727 12.3594 51.3122 12.2157C51.5613 12.0625 51.7577 11.8565 51.9014 11.5978C52.0451 11.3392 52.1169 11.0422 52.1169 10.7069V9.05428C52.1169 8.57527 52.0115 8.23038 51.8008 8.01962C51.59 7.80885 51.2355 7.70347 50.7374 7.70347C50.4595 7.70347 50.1578 7.737 49.832 7.80406C49.5159 7.87112 49.1806 7.98609 48.8261 8.14895C48.6441 8.23517 48.4812 8.25912 48.3375 8.2208C48.2034 8.18248 48.098 8.10584 48.0214 7.99088C47.9447 7.86633 47.9064 7.73221 47.9064 7.58851C47.9064 7.4448 47.9447 7.30589 48.0214 7.17177C48.098 7.02807 48.2274 6.92268 48.4094 6.85562C48.8501 6.6736 49.2716 6.54427 49.674 6.46762C50.0859 6.39098 50.4595 6.35266 50.7949 6.35266C51.4846 6.35266 52.0499 6.45804 52.4905 6.66881C52.9408 6.87957 53.2761 7.20051 53.4965 7.63162C53.7168 8.05315 53.827 8.59922 53.827 9.26983V12.7187C53.827 13.0157 53.7551 13.2456 53.6114 13.4085C53.4677 13.5618 53.2618 13.6384 52.9935 13.6384C52.7253 13.6384 52.5145 13.5618 52.3612 13.4085C52.2175 13.2456 52.1457 13.0157 52.1457 12.7187V12.0289H52.2606C52.1936 12.3642 52.0594 12.6564 51.8583 12.9055C51.6667 13.145 51.4224 13.3318 51.1254 13.466C50.8284 13.6001 50.4883 13.6671 50.1051 13.6671ZM58.0501 13.6671C57.2549 13.6671 56.6561 13.442 56.2538 12.9917C55.8514 12.5319 55.6502 11.8613 55.6502 10.9799V4.18275C55.6502 3.88576 55.7269 3.66063 55.8801 3.50735C56.0334 3.35406 56.2538 3.27742 56.5412 3.27742C56.8286 3.27742 57.0489 3.35406 57.2022 3.50735C57.3651 3.66063 57.4465 3.88576 57.4465 4.18275V10.8937C57.4465 11.3344 57.5375 11.6601 57.7195 11.8709C57.9111 12.0816 58.1794 12.187 58.5243 12.187C58.6009 12.187 58.6728 12.187 58.7398 12.187C58.8069 12.1774 58.8739 12.1678 58.941 12.1583C59.0751 12.1391 59.1661 12.1774 59.214 12.2732C59.2619 12.3594 59.2859 12.5415 59.2859 12.8193C59.2859 13.0588 59.238 13.2456 59.1422 13.3797C59.0464 13.5139 58.8883 13.5953 58.668 13.624C58.5722 13.6336 58.4716 13.6432 58.3662 13.6528C58.2608 13.6624 58.1554 13.6671 58.0501 13.6671ZM63.6322 13.6671C62.8371 13.6671 62.1521 13.5186 61.5773 13.2217C61.0025 12.9247 60.557 12.5031 60.2408 11.9571C59.9343 11.411 59.781 10.7643 59.781 10.0171C59.781 9.28899 59.9295 8.65191 60.2265 8.10584C60.533 7.55977 60.9498 7.13345 61.4767 6.82688C62.0132 6.51074 62.6215 6.35266 63.3017 6.35266C63.7999 6.35266 64.2454 6.43409 64.6382 6.59696C65.0405 6.75982 65.3806 6.99454 65.6584 7.3011C65.9459 7.60767 66.1614 7.9813 66.3051 8.42198C66.4584 8.85309 66.535 9.34168 66.535 9.88775C66.535 10.0602 66.4728 10.1943 66.3482 10.2901C66.2333 10.3763 66.0656 10.4195 65.8453 10.4195H61.2324V9.38479H65.2705L65.0405 9.60035C65.0405 9.15966 64.9735 8.79082 64.8393 8.49384C64.7148 8.19685 64.528 7.97172 64.2789 7.81843C64.0394 7.65557 63.7376 7.57414 63.3736 7.57414C62.9712 7.57414 62.6263 7.66994 62.3389 7.86154C62.0611 8.04357 61.8455 8.30702 61.6922 8.65191C61.5485 8.98722 61.4767 9.38958 61.4767 9.85901V9.95961C61.4767 10.7452 61.6587 11.3344 62.0228 11.7272C62.3964 12.1104 62.9425 12.302 63.661 12.302C63.9101 12.302 64.1879 12.2732 64.4945 12.2157C64.8106 12.1487 65.1076 12.0385 65.3854 11.8852C65.5866 11.7703 65.7638 11.7224 65.9171 11.7415C66.0704 11.7511 66.1901 11.8038 66.2764 11.8996C66.3722 11.9954 66.4297 12.1151 66.4488 12.2589C66.468 12.393 66.4392 12.5319 66.3626 12.6756C66.2955 12.8193 66.1758 12.9438 66.0033 13.0492C65.668 13.26 65.28 13.4181 64.8393 13.5234C64.4082 13.6192 64.0059 13.6671 63.6322 13.6671ZM68.8485 13.6384C68.5611 13.6384 68.3408 13.5618 68.1875 13.4085C68.0342 13.2456 67.9576 13.0157 67.9576 12.7187V7.28673C67.9576 6.98975 68.0342 6.76461 68.1875 6.61133C68.3408 6.45804 68.5563 6.3814 68.8342 6.3814C69.112 6.3814 69.3276 6.45804 69.4808 6.61133C69.6341 6.76461 69.7108 6.98975 69.7108 7.28673V8.26391L69.5527 7.90465C69.7634 7.3969 70.0892 7.0137 70.5299 6.75503C70.9801 6.48679 71.4879 6.35266 72.0531 6.35266C72.6183 6.35266 73.083 6.45804 73.447 6.66881C73.8111 6.87957 74.0841 7.20051 74.2661 7.63162C74.4482 8.05315 74.5392 8.58964 74.5392 9.24109V12.7187C74.5392 13.0157 74.4625 13.2456 74.3093 13.4085C74.156 13.5618 73.9356 13.6384 73.6482 13.6384C73.3608 13.6384 73.1357 13.5618 72.9728 13.4085C72.8195 13.2456 72.7429 13.0157 72.7429 12.7187V9.32731C72.7429 8.78124 72.6375 8.38366 72.4267 8.13458C72.2256 7.88549 71.9094 7.76095 71.4783 7.76095C70.9514 7.76095 70.5299 7.9286 70.2137 8.26391C69.9072 8.58964 69.7539 9.02554 69.7539 9.57161V12.7187C69.7539 13.3318 69.4521 13.6384 68.8485 13.6384ZM79.0653 13.6671C78.4521 13.6671 77.9108 13.5186 77.4414 13.2217C76.9816 12.9247 76.6223 12.5031 76.3636 11.9571C76.105 11.4014 75.9756 10.75 75.9756 10.0027C75.9756 9.24588 76.105 8.59922 76.3636 8.06273C76.6223 7.51666 76.9816 7.09513 77.4414 6.79814C77.9108 6.50116 78.4521 6.35266 79.0653 6.35266C79.6496 6.35266 80.1574 6.49637 80.5885 6.78377C81.0292 7.07118 81.3262 7.44959 81.4795 7.91902H81.3214V4.18275C81.3214 3.88576 81.398 3.66063 81.5513 3.50735C81.7046 3.35406 81.9249 3.27742 82.2124 3.27742C82.4998 3.27742 82.7201 3.35406 82.8734 3.50735C83.0362 3.66063 83.1177 3.88576 83.1177 4.18275V12.7187C83.1177 13.0157 83.041 13.2456 82.8878 13.4085C82.7345 13.5618 82.5141 13.6384 82.2267 13.6384C81.9393 13.6384 81.719 13.5618 81.5657 13.4085C81.4124 13.2456 81.3358 13.0157 81.3358 12.7187V11.5978L81.4938 12.0289C81.3501 12.5271 81.0579 12.9247 80.6172 13.2217C80.1766 13.5186 79.6592 13.6671 79.0653 13.6671ZM79.5682 12.302C79.9227 12.302 80.234 12.2157 80.5023 12.0433C80.7705 11.8709 80.9765 11.617 81.1202 11.2817C81.2735 10.9368 81.3501 10.5105 81.3501 10.0027C81.3501 9.2363 81.1873 8.66628 80.8615 8.29265C80.5358 7.90944 80.1047 7.71784 79.5682 7.71784C79.2137 7.71784 78.9024 7.80406 78.6341 7.97651C78.3659 8.13937 78.1551 8.39324 78.0019 8.73813C77.8582 9.07344 77.7863 9.49497 77.7863 10.0027C77.7863 10.7596 77.9492 11.3344 78.2749 11.7272C78.6006 12.1104 79.0317 12.302 79.5682 12.302ZM87.2938 13.6671C86.7861 13.6671 86.331 13.5713 85.9286 13.3797C85.5359 13.1786 85.2245 12.9103 84.9946 12.575C84.7742 12.2397 84.6641 11.8613 84.6641 11.4397C84.6641 10.9224 84.7982 10.5153 85.0664 10.2183C85.3347 9.9117 85.7706 9.69136 86.3741 9.55724C86.9777 9.42311 87.7872 9.35605 88.8027 9.35605H89.5212V10.3907H88.8171C88.2231 10.3907 87.7489 10.4195 87.3944 10.4769C87.0399 10.5344 86.7861 10.635 86.6328 10.7787C86.4891 10.9128 86.4172 11.1044 86.4172 11.3535C86.4172 11.6697 86.5274 11.9283 86.7477 12.1295C86.9681 12.3307 87.2747 12.4313 87.6674 12.4313C87.9836 12.4313 88.2614 12.3594 88.5009 12.2157C88.75 12.0625 88.9464 11.8565 89.0901 11.5978C89.2338 11.3392 89.3057 11.0422 89.3057 10.7069V9.05428C89.3057 8.57527 89.2003 8.23038 88.9895 8.01962C88.7787 7.80885 88.4243 7.70347 87.9261 7.70347C87.6483 7.70347 87.3465 7.737 87.0208 7.80406C86.7046 7.87112 86.3693 7.98609 86.0149 8.14895C85.8328 8.23517 85.67 8.25912 85.5263 8.2208C85.3921 8.18248 85.2868 8.10584 85.2101 7.99088C85.1335 7.86633 85.0952 7.73221 85.0952 7.58851C85.0952 7.4448 85.1335 7.30589 85.2101 7.17177C85.2868 7.02807 85.4161 6.92268 85.5981 6.85562C86.0388 6.6736 86.4603 6.54427 86.8627 6.46762C87.2747 6.39098 87.6483 6.35266 87.9836 6.35266C88.6734 6.35266 89.2386 6.45804 89.6793 6.66881C90.1296 6.87957 90.4649 7.20051 90.6852 7.63162C90.9055 8.05315 91.0157 8.59922 91.0157 9.26983V12.7187C91.0157 13.0157 90.9439 13.2456 90.8002 13.4085C90.6565 13.5618 90.4505 13.6384 90.1822 13.6384C89.914 13.6384 89.7032 13.5618 89.55 13.4085C89.4062 13.2456 89.3344 13.0157 89.3344 12.7187V12.0289H89.4494C89.3823 12.3642 89.2482 12.6564 89.047 12.9055C88.8554 13.145 88.6111 13.3318 88.3141 13.466C88.0171 13.6001 87.677 13.6671 87.2938 13.6671ZM93.7587 13.6384C93.4617 13.6384 93.2317 13.5618 93.0689 13.4085C92.9156 13.2456 92.839 13.0157 92.839 12.7187V7.28673C92.839 6.98975 92.9156 6.76461 93.0689 6.61133C93.2222 6.45804 93.4377 6.3814 93.7155 6.3814C93.9934 6.3814 94.2089 6.45804 94.3622 6.61133C94.5155 6.76461 94.5921 6.98975 94.5921 7.28673V8.19206H94.4484C94.5825 7.61725 94.846 7.18135 95.2388 6.88436C95.6316 6.58738 96.1537 6.41014 96.8052 6.35266C97.0063 6.3335 97.1644 6.38619 97.2794 6.51074C97.4039 6.6257 97.4758 6.80772 97.4949 7.05681C97.5141 7.29631 97.4566 7.49271 97.3225 7.64599C97.1979 7.78969 97.0063 7.87591 96.7477 7.90465L96.4315 7.93339C95.8471 7.99088 95.4064 8.1729 95.1095 8.47947C94.8125 8.77645 94.664 9.19798 94.664 9.74405V12.7187C94.664 13.0157 94.5873 13.2456 94.4341 13.4085C94.2808 13.5618 94.0556 13.6384 93.7587 13.6384Z" fill="black"/>
<path d="M41.8181 24.9844C41.6498 24.9844 41.5201 24.9388 41.429 24.8477C41.3379 24.7565 41.2923 24.6268 41.2923 24.4586V18.0964C41.2923 17.9282 41.3379 17.7985 41.429 17.7073C41.5201 17.6162 41.6498 17.5706 41.8181 17.5706H45.688C45.8212 17.5706 45.9228 17.6057 45.9929 17.6758C46.07 17.7389 46.1086 17.8335 46.1086 17.9597C46.1086 18.0929 46.07 18.1946 45.9929 18.2647C45.9228 18.3348 45.8212 18.3699 45.688 18.3699H42.2387V20.8201H45.4671C45.6003 20.8201 45.702 20.8551 45.7721 20.9252C45.8422 20.9953 45.8772 21.0935 45.8772 21.2197C45.8772 21.3529 45.8422 21.4545 45.7721 21.5246C45.702 21.5877 45.6003 21.6193 45.4671 21.6193H42.2387V24.1852H45.688C45.8212 24.1852 45.9228 24.2202 45.9929 24.2903C46.07 24.3534 46.1086 24.4516 46.1086 24.5848C46.1086 24.718 46.07 24.8196 45.9929 24.8897C45.9228 24.9528 45.8212 24.9844 45.688 24.9844H41.8181ZM47.4329 25.0475C47.3278 25.0475 47.2366 25.0159 47.1595 24.9528C47.0824 24.8897 47.0403 24.8056 47.0333 24.7004C47.0333 24.5953 47.0789 24.4831 47.17 24.3639L48.9893 22.103V22.5762L47.2857 20.473C47.1876 20.3539 47.142 20.2417 47.149 20.1365C47.156 20.0314 47.1946 19.9472 47.2647 19.8841C47.3418 19.8211 47.4364 19.7895 47.5486 19.7895C47.6678 19.7895 47.7659 19.8105 47.8431 19.8526C47.9272 19.8947 48.0043 19.9613 48.0744 20.0524L49.5256 21.8927H49.1891L50.6403 20.0524C50.7104 19.9613 50.784 19.8947 50.8611 19.8526C50.9453 19.8105 51.0434 19.7895 51.1556 19.7895C51.2678 19.7895 51.3589 19.8211 51.429 19.8841C51.5061 19.9472 51.5447 20.0314 51.5447 20.1365C51.5517 20.2417 51.5096 20.3539 51.4185 20.473L49.7254 22.5552V22.1346L51.5342 24.3639C51.6323 24.4761 51.6779 24.5848 51.6709 24.6899C51.6639 24.7951 51.6218 24.8827 51.5447 24.9528C51.4746 25.0159 51.3834 25.0475 51.2713 25.0475C51.1521 25.0475 51.0504 25.0264 50.9663 24.9844C50.8892 24.9423 50.8156 24.8757 50.7455 24.7846L49.1786 22.8181H49.5046L47.9587 24.7846C47.8886 24.8687 47.8115 24.9353 47.7274 24.9844C47.6503 25.0264 47.5521 25.0475 47.4329 25.0475ZM55.0283 25.079C54.6147 25.079 54.2677 25.0054 53.9872 24.8582C53.7138 24.711 53.507 24.4971 53.3668 24.2167C53.2336 23.9363 53.167 23.5928 53.167 23.1862V20.5992H52.494C52.3678 20.5992 52.2696 20.5677 52.1995 20.5046C52.1294 20.4345 52.0944 20.3433 52.0944 20.2312C52.0944 20.112 52.1294 20.0209 52.1995 19.9578C52.2696 19.8947 52.3678 19.8631 52.494 19.8631H53.167V18.7169C53.167 18.5556 53.2091 18.4365 53.2932 18.3593C53.3773 18.2752 53.4965 18.2331 53.6507 18.2331C53.805 18.2331 53.9206 18.2752 53.9978 18.3593C54.0819 18.4365 54.1239 18.5556 54.1239 18.7169V19.8631H55.3964C55.5296 19.8631 55.6312 19.8947 55.7013 19.9578C55.7714 20.0209 55.8065 20.112 55.8065 20.2312C55.8065 20.3433 55.7714 20.4345 55.7013 20.5046C55.6312 20.5677 55.5296 20.5992 55.3964 20.5992H54.1239V23.102C54.1239 23.4876 54.2046 23.7785 54.3658 23.9748C54.5271 24.1711 54.7935 24.2693 55.165 24.2693C55.2982 24.2693 55.4104 24.2588 55.5015 24.2377C55.5927 24.2097 55.6733 24.1957 55.7434 24.1957C55.8065 24.1887 55.8591 24.2097 55.9011 24.2588C55.9502 24.3078 55.9748 24.399 55.9748 24.5322C55.9748 24.6303 55.9572 24.7215 55.9222 24.8056C55.8941 24.8827 55.8345 24.9353 55.7434 24.9633C55.6593 24.9914 55.5471 25.0159 55.4069 25.037C55.2667 25.065 55.1405 25.079 55.0283 25.079ZM58.9877 25.079C58.4339 25.079 57.9572 24.9739 57.5576 24.7635C57.165 24.5462 56.86 24.2412 56.6427 23.8487C56.4253 23.449 56.3167 22.9793 56.3167 22.4395C56.3167 21.9067 56.4218 21.4405 56.6322 21.0409C56.8495 20.6413 57.1439 20.3293 57.5155 20.105C57.8941 19.8806 58.3252 19.7685 58.809 19.7685C59.1525 19.7685 59.4609 19.8281 59.7344 19.9472C60.0148 20.0594 60.2531 20.2242 60.4494 20.4415C60.6457 20.6588 60.793 20.9252 60.8911 21.2407C60.9963 21.5492 61.0489 21.8997 61.0489 22.2923C61.0489 22.4045 61.0138 22.4921 60.9437 22.5552C60.8806 22.6113 60.786 22.6393 60.6598 22.6393H57.0633V22.0294H60.4179L60.2391 22.1766C60.2391 21.8121 60.183 21.5036 60.0709 21.2512C59.9657 20.9918 59.808 20.7955 59.5977 20.6623C59.3943 20.5291 59.1385 20.4625 58.83 20.4625C58.4935 20.4625 58.206 20.5431 57.9677 20.7044C57.7293 20.8586 57.547 21.0795 57.4209 21.3669C57.2947 21.6473 57.2316 21.9733 57.2316 22.3449V22.408C57.2316 23.0389 57.3823 23.5156 57.6838 23.8381C57.9852 24.1606 58.4199 24.3219 58.9877 24.3219C59.2121 24.3219 59.4399 24.2938 59.6713 24.2377C59.9096 24.1817 60.1375 24.08 60.3548 23.9328C60.46 23.8697 60.5546 23.8416 60.6387 23.8487C60.7299 23.8487 60.8035 23.8767 60.8596 23.9328C60.9157 23.9819 60.9507 24.045 60.9647 24.1221C60.9787 24.1922 60.9682 24.2693 60.9332 24.3534C60.8981 24.4375 60.8315 24.5112 60.7334 24.5743C60.502 24.7355 60.2251 24.8617 59.9026 24.9528C59.5871 25.037 59.2822 25.079 58.9877 25.079ZM62.7123 25.058C62.565 25.058 62.4494 25.0159 62.3652 24.9318C62.2811 24.8477 62.239 24.725 62.239 24.5637V20.2732C62.239 20.112 62.2811 19.9928 62.3652 19.9157C62.4494 19.8316 62.565 19.7895 62.7123 19.7895C62.8595 19.7895 62.9717 19.8316 63.0488 19.9157C63.1329 19.9928 63.175 20.112 63.175 20.2732V21.1355L63.0593 20.9778C63.2065 20.5782 63.4449 20.2767 63.7744 20.0734C64.1109 19.8701 64.493 19.7685 64.9206 19.7685C65.3342 19.7685 65.6743 19.8421 65.9407 19.9893C66.2071 20.1365 66.4069 20.3609 66.5401 20.6623C66.6733 20.9638 66.7399 21.3459 66.7399 21.8086V24.5637C66.7399 24.725 66.6978 24.8477 66.6137 24.9318C66.5366 25.0159 66.4209 25.058 66.2666 25.058C66.1124 25.058 65.9932 25.0159 65.9091 24.9318C65.825 24.8477 65.7829 24.725 65.7829 24.5637V21.8611C65.7829 21.4055 65.6953 21.0724 65.52 20.8621C65.3448 20.6518 65.0643 20.5467 64.6787 20.5467C64.2301 20.5467 63.869 20.6869 63.5956 20.9673C63.3292 21.2407 63.196 21.6123 63.196 22.082V24.5637C63.196 24.8932 63.0348 25.058 62.7123 25.058ZM70.0236 25.079C69.7082 25.079 69.3892 25.044 69.0667 24.9739C68.7512 24.8967 68.4532 24.767 68.1728 24.5848C68.0957 24.5357 68.0396 24.4761 68.0046 24.406C67.9765 24.3289 67.966 24.2553 67.973 24.1852C67.987 24.108 68.0186 24.0414 68.0677 23.9854C68.1167 23.9293 68.1763 23.8977 68.2464 23.8907C68.3236 23.8767 68.4042 23.8942 68.4883 23.9433C68.7617 24.0975 69.0246 24.2062 69.277 24.2693C69.5364 24.3324 69.7923 24.3639 70.0447 24.3639C70.4302 24.3639 70.7212 24.2938 70.9175 24.1536C71.1138 24.0134 71.2119 23.8276 71.2119 23.5963C71.2119 23.4 71.1453 23.2492 71.0121 23.1441C70.8859 23.0319 70.6861 22.9478 70.4127 22.8917L69.4347 22.6919C69.0001 22.5938 68.6706 22.4325 68.4462 22.2082C68.2289 21.9768 68.1202 21.6824 68.1202 21.3248C68.1202 21.0094 68.2044 20.7359 68.3726 20.5046C68.5479 20.2662 68.7898 20.084 69.0982 19.9578C69.4067 19.8316 69.7607 19.7685 70.1603 19.7685C70.4688 19.7685 70.7597 19.8105 71.0332 19.8947C71.3136 19.9718 71.566 20.091 71.7903 20.2522C71.8744 20.3013 71.927 20.3644 71.948 20.4415C71.9761 20.5116 71.9796 20.5852 71.9586 20.6623C71.9445 20.7324 71.913 20.792 71.8639 20.8411C71.8148 20.8902 71.7517 20.9217 71.6746 20.9357C71.5975 20.9428 71.5134 20.9217 71.4222 20.8726C71.2189 20.7324 71.0086 20.6343 70.7913 20.5782C70.581 20.5151 70.3707 20.4836 70.1603 20.4836C69.7818 20.4836 69.4943 20.5572 69.298 20.7044C69.1087 20.8516 69.0141 21.0444 69.0141 21.2828C69.0141 21.465 69.0702 21.6158 69.1824 21.735C69.3015 21.8541 69.4873 21.9418 69.7397 21.9978L70.7177 22.1977C71.1734 22.2958 71.5169 22.4535 71.7482 22.6709C71.9796 22.8812 72.0953 23.1686 72.0953 23.5332C72.0953 24.0099 71.906 24.3885 71.5274 24.6689C71.1558 24.9423 70.6546 25.079 70.0236 25.079ZM73.8136 25.037C73.6663 25.037 73.5507 24.9914 73.4665 24.9002C73.3824 24.8091 73.3403 24.6829 73.3403 24.5217V20.3258C73.3403 20.1576 73.3824 20.0314 73.4665 19.9472C73.5507 19.8561 73.6663 19.8105 73.8136 19.8105C73.9678 19.8105 74.087 19.8561 74.1711 19.9472C74.2552 20.0314 74.2973 20.1576 74.2973 20.3258V24.5217C74.2973 24.6829 74.2552 24.8091 74.1711 24.9002C74.094 24.9914 73.9748 25.037 73.8136 25.037ZM73.8136 18.6748C73.6243 18.6748 73.4735 18.6257 73.3614 18.5276C73.2562 18.4224 73.2036 18.2857 73.2036 18.1175C73.2036 17.9352 73.2562 17.7985 73.3614 17.7073C73.4735 17.6092 73.6243 17.5601 73.8136 17.5601C74.0169 17.5601 74.1676 17.6092 74.2657 17.7073C74.3709 17.7985 74.4235 17.9352 74.4235 18.1175C74.4235 18.2857 74.3709 18.4224 74.2657 18.5276C74.1676 18.6257 74.0169 18.6748 73.8136 18.6748ZM78.0126 25.079C77.5078 25.079 77.0697 24.9704 76.6981 24.753C76.3266 24.5357 76.0391 24.2272 75.8358 23.8276C75.6325 23.428 75.5309 22.9583 75.5309 22.4185C75.5309 22.0119 75.5869 21.6473 75.6991 21.3248C75.8183 20.9953 75.9865 20.7149 76.2039 20.4836C76.4212 20.2522 76.6806 20.0769 76.9821 19.9578C77.2905 19.8316 77.634 19.7685 78.0126 19.7685C78.5174 19.7685 78.9555 19.8771 79.3271 20.0945C79.6987 20.3118 79.9861 20.6203 80.1894 21.0199C80.3927 21.4125 80.4944 21.8787 80.4944 22.4185C80.4944 22.8251 80.4348 23.1932 80.3156 23.5227C80.2034 23.8522 80.0387 24.1326 79.8214 24.3639C79.604 24.5953 79.3411 24.7741 79.0327 24.9002C78.7312 25.0194 78.3912 25.079 78.0126 25.079ZM78.0126 24.3219C78.3211 24.3219 78.5875 24.2483 78.8118 24.101C79.0432 23.9538 79.2184 23.74 79.3376 23.4596C79.4638 23.1791 79.5269 22.8321 79.5269 22.4185C79.5269 21.8016 79.3902 21.3318 79.1168 21.0094C78.8434 20.6869 78.4753 20.5256 78.0126 20.5256C77.7112 20.5256 77.4448 20.5992 77.2134 20.7465C76.9891 20.8867 76.8138 21.097 76.6876 21.3774C76.5614 21.6578 76.4983 22.0049 76.4983 22.4185C76.4983 23.0354 76.635 23.5086 76.9084 23.8381C77.1889 24.1606 77.5569 24.3219 78.0126 24.3219ZM82.1934 25.058C82.0462 25.058 81.9305 25.0159 81.8464 24.9318C81.7623 24.8477 81.7202 24.725 81.7202 24.5637V20.2732C81.7202 20.112 81.7623 19.9928 81.8464 19.9157C81.9305 19.8316 82.0462 19.7895 82.1934 19.7895C82.3407 19.7895 82.4528 19.8316 82.53 19.9157C82.6141 19.9928 82.6561 20.112 82.6561 20.2732V21.1355L82.5405 20.9778C82.6877 20.5782 82.9261 20.2767 83.2555 20.0734C83.5921 19.8701 83.9741 19.7685 84.4018 19.7685C84.8154 19.7685 85.1554 19.8421 85.4218 19.9893C85.6882 20.1365 85.888 20.3609 86.0212 20.6623C86.1544 20.9638 86.221 21.3459 86.221 21.8086V24.5637C86.221 24.725 86.179 24.8477 86.0949 24.9318C86.0177 25.0159 85.9021 25.058 85.7478 25.058C85.5936 25.058 85.4744 25.0159 85.3903 24.9318C85.3062 24.8477 85.2641 24.725 85.2641 24.5637V21.8611C85.2641 21.4055 85.1765 21.0724 85.0012 20.8621C84.8259 20.6518 84.5455 20.5467 84.1599 20.5467C83.7112 20.5467 83.3502 20.6869 83.0768 20.9673C82.8104 21.2407 82.6772 21.6123 82.6772 22.082V24.5637C82.6772 24.8932 82.5159 25.058 82.1934 25.058Z" fill="black"/>
<defs>
<clipPath id="clip0_584_1265">
<rect width="26.5583" height="26.5583" fill="white" transform="translate(2.92188)"/>
</clipPath>
</defs>
</svg>
