<svg width="41" height="41" viewBox="0 0 41 41" fill="none" xmlns="http://www.w3.org/2000/svg">
<g clip-path="url(#clip0_588_1306)">
<rect x="2.43555" y="5.14062" width="37.0505" height="33.963" rx="6.17509" fill="white"/>
<path d="M28.1569 19.2514C27.9773 19.4254 27.866 19.5418 27.7466 19.6493C27.1544 20.1822 26.6213 21.0128 25.9473 21.1505C25.3957 21.2632 24.6707 20.5571 24.0303 20.2C21.9517 19.0408 19.53 19.6518 18.2623 21.6616C16.8823 23.8495 17.4811 26.8429 19.509 28.3434C21.125 29.5392 23.8464 29.1207 24.9123 27.9255C25.6705 27.0752 26.2809 27.0884 26.9805 27.89C27.3481 28.3114 27.8056 28.7255 28.2161 29.1102C29.219 30.0501 29.2598 30.5664 28.2358 31.4532C25.2622 34.0284 21.8179 34.4635 18.2199 33.2372C14.7043 32.039 12.7703 29.3496 12.32 25.7154C11.5107 19.1836 16.5397 14.0899 23.0961 14.7348C24.954 14.9176 26.6122 15.6975 28.0999 16.8156C29.2774 17.7006 29.2859 18.0814 28.1569 19.2514Z" fill="#7D59FC" stroke="black" stroke-width="1.41588"/>
<rect x="2.76758" y="6.39844" width="35.4959" height="3.9213" fill="#8FACF8"/>
<path d="M8.05078 2.37587C8.05078 1.12412 9.06552 0.109375 10.3173 0.109375V0.109375C11.569 0.109375 12.5838 1.12412 12.5838 2.37587V4.18475H8.05078V2.37587Z" fill="#0F0808"/>
<path d="M28.4609 2.35243C28.4609 1.10068 29.4757 0.0859375 30.7274 0.0859375V0.0859375C31.9792 0.0859375 32.9939 1.10068 32.9939 2.35243V4.16132H28.4609V2.35243Z" fill="#0F0808"/>
<rect x="1.42867" y="5.05953" width="38.1737" height="34.5077" rx="6.09946" stroke="#0F0808" stroke-width="2.67781"/>
</g>
<defs>
<clipPath id="clip0_588_1306">
<rect width="41" height="41" fill="white"/>
</clipPath>
</defs>
</svg>
