<svg width="80" height="80" viewBox="0 0 80 80" fill="none" xmlns="http://www.w3.org/2000/svg">
<g clip-path="url(#clip0_588_1306)">
<rect x="4.75391" y="10.0234" width="72.2937" height="66.2693" rx="12.049" fill="white"/>
<path d="M54.9452 37.561C54.5949 37.9006 54.3777 38.1277 54.1448 38.3374C52.9892 39.3773 51.949 40.9979 50.6338 41.2666C49.5575 41.4865 48.1429 40.1087 46.8934 39.4119C42.8375 37.1502 38.1123 38.3424 35.6388 42.2639C32.946 46.533 34.1144 52.3738 38.0713 55.3016C41.2245 57.6347 46.5346 56.8183 48.6143 54.486C50.0939 52.8269 51.2848 52.8527 52.6498 54.4169C53.3672 55.2391 54.2599 56.0472 55.0608 56.7978C57.0176 58.6317 57.0974 59.6391 55.0993 61.3695C49.2971 66.3943 42.5765 67.2431 35.556 64.8504C28.6964 62.5125 24.9227 57.2649 24.0441 50.1738C22.4648 37.4288 32.2776 27.4898 45.0707 28.7482C48.6958 29.1048 51.9312 30.6266 54.8342 32.8083C57.1316 34.535 57.1482 35.2781 54.9452 37.561Z" fill="#7D59FC" stroke="black" stroke-width="2.7627"/>
<rect x="5.40234" y="12.4922" width="69.2603" height="7.65131" fill="#8FACF8"/>
<path d="M15.7109 4.63336C15.7109 2.19092 17.6909 0.210938 20.1334 0.210938V0.210938C22.5758 0.210938 24.5558 2.19092 24.5558 4.63336V8.1629H15.7109V4.63336Z" fill="#0F0808"/>
<path d="M55.5391 4.58648C55.5391 2.14405 57.519 0.164062 59.9615 0.164062V0.164062C62.4039 0.164062 64.3839 2.14405 64.3839 4.58649V8.11602H55.5391V4.58648Z" fill="#0F0808"/>
<rect x="2.78984" y="9.87969" width="74.4853" height="67.3321" rx="11.9014" stroke="#0F0808" stroke-width="5.225"/>
</g>
<defs>
<clipPath id="clip0_588_1306">
<rect width="80" height="80" fill="white"/>
</clipPath>
</defs>
</svg>
